<?xml version="1.0" standalone="no"?>
<!DOCTYPE svg PUBLIC "-//W3C//DTD SVG 20010904//EN"
 "http://www.w3.org/TR/2001/REC-SVG-20010904/DTD/svg10.dtd">
<svg version="1.0" xmlns="http://www.w3.org/2000/svg"
 width="142.000000pt" height="146.000000pt" viewBox="0 0 142.000000 146.000000"
 preserveAspectRatio="xMidYMid meet">
<metadata>
Created by potrace 1.16, written by Peter Selinger 2001-2019
</metadata>

<!-- Background rectangle -->
<rect width="100%" height="100%" fill="transparent"/>

<g transform="translate(0.000000,146.000000) scale(0.100000,-0.100000)"
fill="#c22828" stroke="none">
<path d="M427 936 c-108 -105 -197 -196 -197 -202 0 -6 90 -97 200 -203 l200
-193 0 79 0 78 -120 120 -120 120 120 120 121 121 -3 76 -3 75 -198 -191z"/>
<path d="M810 1053 l0 -78 120 -120 120 -120 -120 -120 -120 -120 0 -79 0 -78
200 192 c110 106 200 198 200 205 0 7 -90 99 -200 205 l-200 192 0 -79z"/>
<path d="M617 832 l-97 -97 100 -100 100 -100 100 100 100 100 -97 97 c-54 54
-100 98 -103 98 -3 0 -49 -44 -103 -98z"/>
</g>
</svg>
